<mxfile host="app.diagrams.net" modified="2020-10-18T21:29:49.686Z" agent="5.0 (Windows NT 10.0; Win64; x64) AppleWebKit/537.36 (KHTML, like Gecko) Chrome/86.0.4240.75 Safari/537.36" etag="EnsREtEUoR192EuA7JLf" version="13.8.0" type="github">
  <diagram id="C5RBs43oDa-KdzZeNtuy" name="Page-1">
    <mxGraphModel dx="782" dy="437" grid="1" gridSize="10" guides="1" tooltips="1" connect="1" arrows="1" fold="1" page="1" pageScale="1" pageWidth="827" pageHeight="1169" math="0" shadow="0">
      <root>
        <mxCell id="WIyWlLk6GJQsqaUBKTNV-0" />
        <mxCell id="WIyWlLk6GJQsqaUBKTNV-1" parent="WIyWlLk6GJQsqaUBKTNV-0" />
        <mxCell id="whg161GarNfC_AISxSCE-1" value="Srart" style="ellipse;whiteSpace=wrap;html=1;" vertex="1" parent="WIyWlLk6GJQsqaUBKTNV-1">
          <mxGeometry x="330" y="140" width="120" height="80" as="geometry" />
        </mxCell>
        <mxCell id="whg161GarNfC_AISxSCE-2" value="&lt;p style=&quot;line-height: 170%&quot;&gt;&amp;nbsp;Task 19&lt;br&gt;Составить блок-схему и код алгоритма, который вычисляет оптимальный вес для пользователя, сравнивает его с&lt;br&gt;реальным и выдает рекомендацию о необходимости поправиться или похудеть. Оптимальный вес вычисляется по&lt;br&gt;формуле: Рост (см) – 100.&amp;nbsp;&lt;/p&gt;" style="text;html=1;strokeColor=none;fillColor=none;align=center;verticalAlign=middle;whiteSpace=wrap;rounded=0;" vertex="1" parent="WIyWlLk6GJQsqaUBKTNV-1">
          <mxGeometry x="660" y="90" width="150" height="280" as="geometry" />
        </mxCell>
        <mxCell id="whg161GarNfC_AISxSCE-3" value="Input:height,weight;&lt;br&gt;int: Nweight,need;" style="shape=parallelogram;perimeter=parallelogramPerimeter;whiteSpace=wrap;html=1;fixedSize=1;" vertex="1" parent="WIyWlLk6GJQsqaUBKTNV-1">
          <mxGeometry x="320" y="300" width="140" height="70" as="geometry" />
        </mxCell>
        <mxCell id="whg161GarNfC_AISxSCE-4" value="" style="endArrow=classic;html=1;exitX=0.5;exitY=1;exitDx=0;exitDy=0;entryX=0.5;entryY=0;entryDx=0;entryDy=0;" edge="1" parent="WIyWlLk6GJQsqaUBKTNV-1" source="whg161GarNfC_AISxSCE-1" target="whg161GarNfC_AISxSCE-3">
          <mxGeometry width="50" height="50" relative="1" as="geometry">
            <mxPoint x="390" y="450" as="sourcePoint" />
            <mxPoint x="440" y="400" as="targetPoint" />
          </mxGeometry>
        </mxCell>
        <mxCell id="whg161GarNfC_AISxSCE-5" value="&lt;span style=&quot;color: rgb(36 , 41 , 46) ; font-family: , &amp;#34;consolas&amp;#34; , &amp;#34;liberation mono&amp;#34; , &amp;#34;menlo&amp;#34; , monospace ; background-color: rgb(255 , 255 , 255)&quot;&gt;height &amp;lt;= 0 &lt;br&gt;or&lt;br&gt;&amp;nbsp;weight &amp;lt;= 0&lt;/span&gt;" style="rhombus;whiteSpace=wrap;html=1;" vertex="1" parent="WIyWlLk6GJQsqaUBKTNV-1">
          <mxGeometry x="330" y="430" width="120" height="110" as="geometry" />
        </mxCell>
        <mxCell id="whg161GarNfC_AISxSCE-6" value="" style="endArrow=classic;html=1;exitX=0.5;exitY=1;exitDx=0;exitDy=0;entryX=0.5;entryY=0;entryDx=0;entryDy=0;" edge="1" parent="WIyWlLk6GJQsqaUBKTNV-1" source="whg161GarNfC_AISxSCE-3" target="whg161GarNfC_AISxSCE-5">
          <mxGeometry width="50" height="50" relative="1" as="geometry">
            <mxPoint x="390" y="530" as="sourcePoint" />
            <mxPoint x="440" y="480" as="targetPoint" />
          </mxGeometry>
        </mxCell>
        <mxCell id="whg161GarNfC_AISxSCE-7" value="Output:&quot;Input error&quot;;" style="shape=parallelogram;perimeter=parallelogramPerimeter;whiteSpace=wrap;html=1;fixedSize=1;" vertex="1" parent="WIyWlLk6GJQsqaUBKTNV-1">
          <mxGeometry x="590" y="540" width="130" height="60" as="geometry" />
        </mxCell>
        <mxCell id="whg161GarNfC_AISxSCE-10" value="goto input;" style="rounded=0;whiteSpace=wrap;html=1;" vertex="1" parent="WIyWlLk6GJQsqaUBKTNV-1">
          <mxGeometry x="595" y="660" width="120" height="60" as="geometry" />
        </mxCell>
        <mxCell id="whg161GarNfC_AISxSCE-11" value="" style="endArrow=classic;html=1;exitX=1;exitY=0.5;exitDx=0;exitDy=0;entryX=0.5;entryY=0;entryDx=0;entryDy=0;" edge="1" parent="WIyWlLk6GJQsqaUBKTNV-1" source="whg161GarNfC_AISxSCE-5" target="whg161GarNfC_AISxSCE-7">
          <mxGeometry width="50" height="50" relative="1" as="geometry">
            <mxPoint x="390" y="630" as="sourcePoint" />
            <mxPoint x="440" y="580" as="targetPoint" />
            <Array as="points">
              <mxPoint x="655" y="485" />
            </Array>
          </mxGeometry>
        </mxCell>
        <mxCell id="whg161GarNfC_AISxSCE-12" value="Yes" style="text;html=1;strokeColor=none;fillColor=none;align=center;verticalAlign=middle;whiteSpace=wrap;rounded=0;" vertex="1" parent="WIyWlLk6GJQsqaUBKTNV-1">
          <mxGeometry x="450" y="460" width="40" height="20" as="geometry" />
        </mxCell>
        <mxCell id="whg161GarNfC_AISxSCE-13" value="" style="endArrow=classic;html=1;exitX=0.5;exitY=1;exitDx=0;exitDy=0;entryX=0.5;entryY=0;entryDx=0;entryDy=0;" edge="1" parent="WIyWlLk6GJQsqaUBKTNV-1" source="whg161GarNfC_AISxSCE-7" target="whg161GarNfC_AISxSCE-10">
          <mxGeometry width="50" height="50" relative="1" as="geometry">
            <mxPoint x="390" y="630" as="sourcePoint" />
            <mxPoint x="440" y="580" as="targetPoint" />
          </mxGeometry>
        </mxCell>
        <mxCell id="whg161GarNfC_AISxSCE-14" value="" style="endArrow=classic;html=1;exitX=0.5;exitY=1;exitDx=0;exitDy=0;entryX=1;entryY=0.5;entryDx=0;entryDy=0;" edge="1" parent="WIyWlLk6GJQsqaUBKTNV-1" source="whg161GarNfC_AISxSCE-10" target="whg161GarNfC_AISxSCE-3">
          <mxGeometry width="50" height="50" relative="1" as="geometry">
            <mxPoint x="390" y="630" as="sourcePoint" />
            <mxPoint x="460" y="560" as="targetPoint" />
            <Array as="points">
              <mxPoint x="655" y="740" />
              <mxPoint x="790" y="740" />
              <mxPoint x="780" y="510" />
              <mxPoint x="770" y="380" />
              <mxPoint x="655" y="380" />
              <mxPoint x="655" y="340" />
            </Array>
          </mxGeometry>
        </mxCell>
        <mxCell id="whg161GarNfC_AISxSCE-15" value="" style="endArrow=classic;html=1;exitX=0;exitY=0.5;exitDx=0;exitDy=0;entryX=0.5;entryY=0;entryDx=0;entryDy=0;" edge="1" parent="WIyWlLk6GJQsqaUBKTNV-1" source="whg161GarNfC_AISxSCE-5" target="whg161GarNfC_AISxSCE-17">
          <mxGeometry width="50" height="50" relative="1" as="geometry">
            <mxPoint x="390" y="640" as="sourcePoint" />
            <mxPoint x="190" y="470" as="targetPoint" />
            <Array as="points">
              <mxPoint x="200" y="485" />
            </Array>
          </mxGeometry>
        </mxCell>
        <mxCell id="whg161GarNfC_AISxSCE-17" value="&lt;span style=&quot;color: rgb(36 , 41 , 46) ; font-family: , &amp;#34;consolas&amp;#34; , &amp;#34;liberation mono&amp;#34; , &amp;#34;menlo&amp;#34; , monospace ; background-color: rgb(255 , 255 , 255)&quot;&gt;Nweight = height - 100;&lt;/span&gt;" style="rounded=0;whiteSpace=wrap;html=1;" vertex="1" parent="WIyWlLk6GJQsqaUBKTNV-1">
          <mxGeometry x="140" y="540" width="120" height="60" as="geometry" />
        </mxCell>
        <mxCell id="whg161GarNfC_AISxSCE-18" value="No" style="text;html=1;strokeColor=none;fillColor=none;align=center;verticalAlign=middle;whiteSpace=wrap;rounded=0;" vertex="1" parent="WIyWlLk6GJQsqaUBKTNV-1">
          <mxGeometry x="280" y="460" width="40" height="20" as="geometry" />
        </mxCell>
        <mxCell id="whg161GarNfC_AISxSCE-19" value="&lt;span style=&quot;color: rgb(36 , 41 , 46) ; font-family: , &amp;#34;consolas&amp;#34; , &amp;#34;liberation mono&amp;#34; , &amp;#34;menlo&amp;#34; , monospace ; background-color: rgb(255 , 255 , 255)&quot;&gt;weight == Nweight&lt;/span&gt;" style="rhombus;whiteSpace=wrap;html=1;" vertex="1" parent="WIyWlLk6GJQsqaUBKTNV-1">
          <mxGeometry x="120" y="650" width="160" height="100" as="geometry" />
        </mxCell>
        <mxCell id="whg161GarNfC_AISxSCE-20" value="" style="endArrow=classic;html=1;exitX=0.5;exitY=1;exitDx=0;exitDy=0;entryX=0.5;entryY=0;entryDx=0;entryDy=0;" edge="1" parent="WIyWlLk6GJQsqaUBKTNV-1" source="whg161GarNfC_AISxSCE-17" target="whg161GarNfC_AISxSCE-19">
          <mxGeometry width="50" height="50" relative="1" as="geometry">
            <mxPoint x="390" y="640" as="sourcePoint" />
            <mxPoint x="440" y="590" as="targetPoint" />
          </mxGeometry>
        </mxCell>
        <mxCell id="whg161GarNfC_AISxSCE-21" value="&lt;span style=&quot;color: rgb(36 , 41 , 46) ; font-family: , &amp;#34;consolas&amp;#34; , &amp;#34;liberation mono&amp;#34; , &amp;#34;menlo&amp;#34; , monospace ; background-color: rgb(255 , 255 , 255)&quot;&gt;&quot; Your weight is nice &quot;&lt;/span&gt;" style="shape=parallelogram;perimeter=parallelogramPerimeter;whiteSpace=wrap;html=1;fixedSize=1;" vertex="1" parent="WIyWlLk6GJQsqaUBKTNV-1">
          <mxGeometry x="430" y="730" width="140" height="60" as="geometry" />
        </mxCell>
        <mxCell id="whg161GarNfC_AISxSCE-22" value="" style="endArrow=classic;html=1;exitX=1;exitY=0.5;exitDx=0;exitDy=0;entryX=0.5;entryY=0;entryDx=0;entryDy=0;" edge="1" parent="WIyWlLk6GJQsqaUBKTNV-1" source="whg161GarNfC_AISxSCE-19" target="whg161GarNfC_AISxSCE-21">
          <mxGeometry width="50" height="50" relative="1" as="geometry">
            <mxPoint x="390" y="640" as="sourcePoint" />
            <mxPoint x="440" y="590" as="targetPoint" />
            <Array as="points">
              <mxPoint x="500" y="700" />
            </Array>
          </mxGeometry>
        </mxCell>
        <mxCell id="whg161GarNfC_AISxSCE-23" value="Yes" style="text;html=1;strokeColor=none;fillColor=none;align=center;verticalAlign=middle;whiteSpace=wrap;rounded=0;" vertex="1" parent="WIyWlLk6GJQsqaUBKTNV-1">
          <mxGeometry x="280" y="680" width="40" height="20" as="geometry" />
        </mxCell>
        <mxCell id="whg161GarNfC_AISxSCE-24" value="&lt;span style=&quot;color: rgb(36 , 41 , 46) ; font-family: , &amp;#34;consolas&amp;#34; , &amp;#34;liberation mono&amp;#34; , &amp;#34;menlo&amp;#34; , monospace ; background-color: rgb(255 , 255 , 255)&quot;&gt;weight &amp;lt; Nweight&lt;/span&gt;" style="rhombus;whiteSpace=wrap;html=1;" vertex="1" parent="WIyWlLk6GJQsqaUBKTNV-1">
          <mxGeometry x="30" y="830" width="120" height="90" as="geometry" />
        </mxCell>
        <mxCell id="whg161GarNfC_AISxSCE-25" value="" style="endArrow=classic;html=1;exitX=0;exitY=0.5;exitDx=0;exitDy=0;entryX=0.5;entryY=0;entryDx=0;entryDy=0;" edge="1" parent="WIyWlLk6GJQsqaUBKTNV-1" source="whg161GarNfC_AISxSCE-19" target="whg161GarNfC_AISxSCE-24">
          <mxGeometry width="50" height="50" relative="1" as="geometry">
            <mxPoint x="390" y="840" as="sourcePoint" />
            <mxPoint x="440" y="790" as="targetPoint" />
            <Array as="points">
              <mxPoint x="90" y="700" />
            </Array>
          </mxGeometry>
        </mxCell>
        <mxCell id="whg161GarNfC_AISxSCE-26" value="No" style="text;html=1;strokeColor=none;fillColor=none;align=center;verticalAlign=middle;whiteSpace=wrap;rounded=0;" vertex="1" parent="WIyWlLk6GJQsqaUBKTNV-1">
          <mxGeometry x="90" y="680" width="40" height="20" as="geometry" />
        </mxCell>
        <mxCell id="whg161GarNfC_AISxSCE-27" value="&lt;span style=&quot;color: rgb(36 , 41 , 46) ; font-family: , &amp;#34;consolas&amp;#34; , &amp;#34;liberation mono&amp;#34; , &amp;#34;menlo&amp;#34; , monospace ; background-color: rgb(255 , 255 , 255)&quot;&gt;need = Nweight - weight;&lt;/span&gt;" style="rounded=0;whiteSpace=wrap;html=1;" vertex="1" parent="WIyWlLk6GJQsqaUBKTNV-1">
          <mxGeometry x="300" y="900" width="120" height="60" as="geometry" />
        </mxCell>
        <mxCell id="whg161GarNfC_AISxSCE-29" value="Output:&lt;span style=&quot;color: rgb(36 , 41 , 46) ; font-family: , &amp;#34;consolas&amp;#34; , &amp;#34;liberation mono&amp;#34; , &amp;#34;menlo&amp;#34; , monospace ; background-color: rgb(255 , 255 , 255)&quot;&gt;&quot; You need to gain : &quot;;&lt;/span&gt;" style="shape=parallelogram;perimeter=parallelogramPerimeter;whiteSpace=wrap;html=1;fixedSize=1;" vertex="1" parent="WIyWlLk6GJQsqaUBKTNV-1">
          <mxGeometry x="270" y="990" width="180" height="50" as="geometry" />
        </mxCell>
        <mxCell id="whg161GarNfC_AISxSCE-30" style="edgeStyle=orthogonalEdgeStyle;rounded=0;orthogonalLoop=1;jettySize=auto;html=1;exitX=0.5;exitY=1;exitDx=0;exitDy=0;" edge="1" parent="WIyWlLk6GJQsqaUBKTNV-1" source="whg161GarNfC_AISxSCE-29" target="whg161GarNfC_AISxSCE-29">
          <mxGeometry relative="1" as="geometry" />
        </mxCell>
        <mxCell id="whg161GarNfC_AISxSCE-31" value="Output:need;" style="shape=parallelogram;perimeter=parallelogramPerimeter;whiteSpace=wrap;html=1;fixedSize=1;" vertex="1" parent="WIyWlLk6GJQsqaUBKTNV-1">
          <mxGeometry x="300" y="1080" width="120" height="60" as="geometry" />
        </mxCell>
        <mxCell id="whg161GarNfC_AISxSCE-32" value="" style="endArrow=classic;html=1;exitX=1;exitY=0.5;exitDx=0;exitDy=0;entryX=0.5;entryY=0;entryDx=0;entryDy=0;" edge="1" parent="WIyWlLk6GJQsqaUBKTNV-1" source="whg161GarNfC_AISxSCE-24" target="whg161GarNfC_AISxSCE-27">
          <mxGeometry width="50" height="50" relative="1" as="geometry">
            <mxPoint x="390" y="1030" as="sourcePoint" />
            <mxPoint x="440" y="980" as="targetPoint" />
            <Array as="points">
              <mxPoint x="360" y="875" />
            </Array>
          </mxGeometry>
        </mxCell>
        <mxCell id="whg161GarNfC_AISxSCE-33" value="" style="endArrow=classic;html=1;exitX=0.5;exitY=1;exitDx=0;exitDy=0;entryX=0.5;entryY=0;entryDx=0;entryDy=0;" edge="1" parent="WIyWlLk6GJQsqaUBKTNV-1" source="whg161GarNfC_AISxSCE-27" target="whg161GarNfC_AISxSCE-29">
          <mxGeometry width="50" height="50" relative="1" as="geometry">
            <mxPoint x="390" y="1030" as="sourcePoint" />
            <mxPoint x="440" y="980" as="targetPoint" />
          </mxGeometry>
        </mxCell>
        <mxCell id="whg161GarNfC_AISxSCE-34" value="" style="endArrow=classic;html=1;exitX=0.5;exitY=1;exitDx=0;exitDy=0;entryX=0.5;entryY=0;entryDx=0;entryDy=0;" edge="1" parent="WIyWlLk6GJQsqaUBKTNV-1" source="whg161GarNfC_AISxSCE-29" target="whg161GarNfC_AISxSCE-31">
          <mxGeometry width="50" height="50" relative="1" as="geometry">
            <mxPoint x="390" y="1030" as="sourcePoint" />
            <mxPoint x="440" y="980" as="targetPoint" />
          </mxGeometry>
        </mxCell>
        <mxCell id="whg161GarNfC_AISxSCE-35" value="Yes" style="text;html=1;strokeColor=none;fillColor=none;align=center;verticalAlign=middle;whiteSpace=wrap;rounded=0;" vertex="1" parent="WIyWlLk6GJQsqaUBKTNV-1">
          <mxGeometry x="150" y="850" width="40" height="20" as="geometry" />
        </mxCell>
        <mxCell id="whg161GarNfC_AISxSCE-36" value="&lt;span style=&quot;color: rgb(36 , 41 , 46) ; font-family: , &amp;#34;consolas&amp;#34; , &amp;#34;liberation mono&amp;#34; , &amp;#34;menlo&amp;#34; , monospace ; background-color: rgb(255 , 255 , 255)&quot;&gt;need = weight - Nweight;&lt;/span&gt;" style="rounded=0;whiteSpace=wrap;html=1;" vertex="1" parent="WIyWlLk6GJQsqaUBKTNV-1">
          <mxGeometry x="30" y="1040" width="120" height="60" as="geometry" />
        </mxCell>
        <mxCell id="whg161GarNfC_AISxSCE-37" value="" style="endArrow=classic;html=1;exitX=0.5;exitY=1;exitDx=0;exitDy=0;entryX=0.5;entryY=0;entryDx=0;entryDy=0;" edge="1" parent="WIyWlLk6GJQsqaUBKTNV-1" source="whg161GarNfC_AISxSCE-24" target="whg161GarNfC_AISxSCE-36">
          <mxGeometry width="50" height="50" relative="1" as="geometry">
            <mxPoint x="390" y="1030" as="sourcePoint" />
            <mxPoint x="440" y="980" as="targetPoint" />
          </mxGeometry>
        </mxCell>
        <mxCell id="whg161GarNfC_AISxSCE-38" value="No" style="text;html=1;strokeColor=none;fillColor=none;align=center;verticalAlign=middle;whiteSpace=wrap;rounded=0;" vertex="1" parent="WIyWlLk6GJQsqaUBKTNV-1">
          <mxGeometry x="50" y="930" width="40" height="20" as="geometry" />
        </mxCell>
        <mxCell id="whg161GarNfC_AISxSCE-40" value="Output:&amp;nbsp;&lt;span style=&quot;color: rgb(36 , 41 , 46) ; font-family: , &amp;#34;consolas&amp;#34; , &amp;#34;liberation mono&amp;#34; , &amp;#34;menlo&amp;#34; , monospace ; background-color: rgb(255 , 255 , 255)&quot;&gt;&quot; You &lt;br&gt;need to lose&lt;br&gt;&amp;nbsp;weight on: &quot;&lt;/span&gt;&lt;br&gt;;" style="shape=parallelogram;perimeter=parallelogramPerimeter;whiteSpace=wrap;html=1;fixedSize=1;" vertex="1" parent="WIyWlLk6GJQsqaUBKTNV-1">
          <mxGeometry x="25" y="1140" width="130" height="80" as="geometry" />
        </mxCell>
        <mxCell id="whg161GarNfC_AISxSCE-41" value="Output:nned;" style="shape=parallelogram;perimeter=parallelogramPerimeter;whiteSpace=wrap;html=1;fixedSize=1;" vertex="1" parent="WIyWlLk6GJQsqaUBKTNV-1">
          <mxGeometry x="30" y="1240" width="120" height="60" as="geometry" />
        </mxCell>
        <mxCell id="whg161GarNfC_AISxSCE-43" value="" style="endArrow=classic;html=1;exitX=0.5;exitY=1;exitDx=0;exitDy=0;entryX=0.5;entryY=0;entryDx=0;entryDy=0;" edge="1" parent="WIyWlLk6GJQsqaUBKTNV-1" source="whg161GarNfC_AISxSCE-36" target="whg161GarNfC_AISxSCE-40">
          <mxGeometry width="50" height="50" relative="1" as="geometry">
            <mxPoint x="390" y="1210" as="sourcePoint" />
            <mxPoint x="440" y="1160" as="targetPoint" />
          </mxGeometry>
        </mxCell>
        <mxCell id="whg161GarNfC_AISxSCE-44" value="" style="endArrow=classic;html=1;exitX=0.5;exitY=1;exitDx=0;exitDy=0;entryX=0.5;entryY=0;entryDx=0;entryDy=0;" edge="1" parent="WIyWlLk6GJQsqaUBKTNV-1" source="whg161GarNfC_AISxSCE-40" target="whg161GarNfC_AISxSCE-41">
          <mxGeometry width="50" height="50" relative="1" as="geometry">
            <mxPoint x="390" y="1210" as="sourcePoint" />
            <mxPoint x="440" y="1160" as="targetPoint" />
          </mxGeometry>
        </mxCell>
        <mxCell id="whg161GarNfC_AISxSCE-45" value="" style="endArrow=classic;html=1;exitX=0.5;exitY=1;exitDx=0;exitDy=0;" edge="1" parent="WIyWlLk6GJQsqaUBKTNV-1" source="whg161GarNfC_AISxSCE-41">
          <mxGeometry width="50" height="50" relative="1" as="geometry">
            <mxPoint x="390" y="1210" as="sourcePoint" />
            <mxPoint x="360" y="1330" as="targetPoint" />
            <Array as="points">
              <mxPoint x="90" y="1330" />
            </Array>
          </mxGeometry>
        </mxCell>
        <mxCell id="whg161GarNfC_AISxSCE-46" value="" style="endArrow=classic;html=1;exitX=0.5;exitY=1;exitDx=0;exitDy=0;" edge="1" parent="WIyWlLk6GJQsqaUBKTNV-1" source="whg161GarNfC_AISxSCE-31">
          <mxGeometry width="50" height="50" relative="1" as="geometry">
            <mxPoint x="390" y="1210" as="sourcePoint" />
            <mxPoint x="360" y="1330" as="targetPoint" />
          </mxGeometry>
        </mxCell>
        <mxCell id="whg161GarNfC_AISxSCE-47" value="" style="endArrow=classic;html=1;exitX=0.5;exitY=1;exitDx=0;exitDy=0;" edge="1" parent="WIyWlLk6GJQsqaUBKTNV-1" source="whg161GarNfC_AISxSCE-21">
          <mxGeometry width="50" height="50" relative="1" as="geometry">
            <mxPoint x="530" y="1010" as="sourcePoint" />
            <mxPoint x="360" y="1330" as="targetPoint" />
            <Array as="points">
              <mxPoint x="500" y="1330" />
            </Array>
          </mxGeometry>
        </mxCell>
        <mxCell id="whg161GarNfC_AISxSCE-48" value="End" style="ellipse;whiteSpace=wrap;html=1;" vertex="1" parent="WIyWlLk6GJQsqaUBKTNV-1">
          <mxGeometry x="300" y="1370" width="120" height="80" as="geometry" />
        </mxCell>
        <mxCell id="whg161GarNfC_AISxSCE-50" value="" style="endArrow=classic;html=1;entryX=0.5;entryY=0;entryDx=0;entryDy=0;" edge="1" parent="WIyWlLk6GJQsqaUBKTNV-1" target="whg161GarNfC_AISxSCE-48">
          <mxGeometry width="50" height="50" relative="1" as="geometry">
            <mxPoint x="360" y="1330" as="sourcePoint" />
            <mxPoint x="440" y="1270" as="targetPoint" />
          </mxGeometry>
        </mxCell>
        <mxCell id="whg161GarNfC_AISxSCE-51" value="&lt;p style=&quot;line-height: 170%&quot;&gt;Task 23&lt;br&gt;&amp;nbsp;Составить блок-схему и код алгоритма, который после введённого с клавиатуры числа (в диапазоне от 1 до 99),&lt;br/&gt;обозначающего денежную единицу, дописывает слово &quot;копейка&quot; в правильной форме. Например, 5 копеек, 41&lt;br/&gt;копейка и т.д.&lt;br&gt;&lt;/p&gt;" style="text;html=1;strokeColor=none;fillColor=none;align=center;verticalAlign=middle;whiteSpace=wrap;rounded=0;" vertex="1" parent="WIyWlLk6GJQsqaUBKTNV-1">
          <mxGeometry x="620" y="1500" width="190" height="270" as="geometry" />
        </mxCell>
        <mxCell id="whg161GarNfC_AISxSCE-52" value="Start" style="ellipse;whiteSpace=wrap;html=1;" vertex="1" parent="WIyWlLk6GJQsqaUBKTNV-1">
          <mxGeometry x="370" y="1540" width="120" height="80" as="geometry" />
        </mxCell>
        <mxCell id="whg161GarNfC_AISxSCE-53" value="Input:num;" style="shape=parallelogram;perimeter=parallelogramPerimeter;whiteSpace=wrap;html=1;fixedSize=1;" vertex="1" parent="WIyWlLk6GJQsqaUBKTNV-1">
          <mxGeometry x="370" y="1680" width="120" height="60" as="geometry" />
        </mxCell>
        <mxCell id="whg161GarNfC_AISxSCE-54" value="" style="endArrow=classic;html=1;exitX=0.5;exitY=1;exitDx=0;exitDy=0;entryX=0.5;entryY=0;entryDx=0;entryDy=0;" edge="1" parent="WIyWlLk6GJQsqaUBKTNV-1" source="whg161GarNfC_AISxSCE-52" target="whg161GarNfC_AISxSCE-53">
          <mxGeometry width="50" height="50" relative="1" as="geometry">
            <mxPoint x="420" y="1690" as="sourcePoint" />
            <mxPoint x="470" y="1640" as="targetPoint" />
          </mxGeometry>
        </mxCell>
        <mxCell id="whg161GarNfC_AISxSCE-55" value="&lt;span style=&quot;color: rgb(36 , 41 , 46) ; font-family: , &amp;#34;consolas&amp;#34; , &amp;#34;liberation mono&amp;#34; , &amp;#34;menlo&amp;#34; , monospace ; background-color: rgb(255 , 255 , 255)&quot;&gt;num &amp;lt; 1&amp;nbsp;&lt;br&gt;or&lt;br&gt;&amp;nbsp;num &amp;gt;= 100&lt;/span&gt;" style="rhombus;whiteSpace=wrap;html=1;" vertex="1" parent="WIyWlLk6GJQsqaUBKTNV-1">
          <mxGeometry x="360" y="1770" width="140" height="110" as="geometry" />
        </mxCell>
        <mxCell id="whg161GarNfC_AISxSCE-56" value="" style="endArrow=classic;html=1;exitX=0.5;exitY=1;exitDx=0;exitDy=0;entryX=0.5;entryY=0;entryDx=0;entryDy=0;" edge="1" parent="WIyWlLk6GJQsqaUBKTNV-1" source="whg161GarNfC_AISxSCE-53" target="whg161GarNfC_AISxSCE-55">
          <mxGeometry width="50" height="50" relative="1" as="geometry">
            <mxPoint x="420" y="1880" as="sourcePoint" />
            <mxPoint x="470" y="1830" as="targetPoint" />
          </mxGeometry>
        </mxCell>
        <mxCell id="whg161GarNfC_AISxSCE-57" value="&lt;span style=&quot;color: rgb(36 , 41 , 46) ; font-family: , &amp;#34;consolas&amp;#34; , &amp;#34;liberation mono&amp;#34; , &amp;#34;menlo&amp;#34; , monospace ; background-color: rgb(255 , 255 , 255)&quot;&gt;Output:&quot;Input &lt;br&gt;error&quot;;&amp;nbsp;&lt;/span&gt;" style="shape=parallelogram;perimeter=parallelogramPerimeter;whiteSpace=wrap;html=1;fixedSize=1;" vertex="1" parent="WIyWlLk6GJQsqaUBKTNV-1">
          <mxGeometry x="560" y="1860" width="120" height="60" as="geometry" />
        </mxCell>
        <mxCell id="whg161GarNfC_AISxSCE-58" value="goto input;" style="rounded=0;whiteSpace=wrap;html=1;" vertex="1" parent="WIyWlLk6GJQsqaUBKTNV-1">
          <mxGeometry x="560" y="1970" width="120" height="60" as="geometry" />
        </mxCell>
        <mxCell id="whg161GarNfC_AISxSCE-59" value="" style="endArrow=classic;html=1;exitX=0.5;exitY=1;exitDx=0;exitDy=0;entryX=1;entryY=0.5;entryDx=0;entryDy=0;" edge="1" parent="WIyWlLk6GJQsqaUBKTNV-1" source="whg161GarNfC_AISxSCE-58" target="whg161GarNfC_AISxSCE-53">
          <mxGeometry width="50" height="50" relative="1" as="geometry">
            <mxPoint x="420" y="1870" as="sourcePoint" />
            <mxPoint x="520" y="1740" as="targetPoint" />
            <Array as="points">
              <mxPoint x="620" y="2050" />
              <mxPoint x="790" y="2050" />
              <mxPoint x="780" y="1750" />
              <mxPoint x="620" y="1750" />
              <mxPoint x="620" y="1710" />
            </Array>
          </mxGeometry>
        </mxCell>
        <mxCell id="whg161GarNfC_AISxSCE-60" value="" style="endArrow=classic;html=1;exitX=1;exitY=0.5;exitDx=0;exitDy=0;entryX=0.5;entryY=0;entryDx=0;entryDy=0;" edge="1" parent="WIyWlLk6GJQsqaUBKTNV-1" source="whg161GarNfC_AISxSCE-55" target="whg161GarNfC_AISxSCE-57">
          <mxGeometry width="50" height="50" relative="1" as="geometry">
            <mxPoint x="420" y="2010" as="sourcePoint" />
            <mxPoint x="470" y="1960" as="targetPoint" />
            <Array as="points">
              <mxPoint x="620" y="1825" />
            </Array>
          </mxGeometry>
        </mxCell>
        <mxCell id="whg161GarNfC_AISxSCE-61" value="" style="endArrow=classic;html=1;exitX=0.5;exitY=1;exitDx=0;exitDy=0;entryX=0.5;entryY=0;entryDx=0;entryDy=0;" edge="1" parent="WIyWlLk6GJQsqaUBKTNV-1" source="whg161GarNfC_AISxSCE-57" target="whg161GarNfC_AISxSCE-58">
          <mxGeometry width="50" height="50" relative="1" as="geometry">
            <mxPoint x="420" y="2010" as="sourcePoint" />
            <mxPoint x="470" y="1960" as="targetPoint" />
          </mxGeometry>
        </mxCell>
        <mxCell id="whg161GarNfC_AISxSCE-62" value="Yes" style="text;html=1;strokeColor=none;fillColor=none;align=center;verticalAlign=middle;whiteSpace=wrap;rounded=0;" vertex="1" parent="WIyWlLk6GJQsqaUBKTNV-1">
          <mxGeometry x="500" y="1810" width="40" height="20" as="geometry" />
        </mxCell>
        <mxCell id="whg161GarNfC_AISxSCE-63" value="&lt;span style=&quot;color: rgb(36 , 41 , 46) ; font-family: , &amp;#34;consolas&amp;#34; , &amp;#34;liberation mono&amp;#34; , &amp;#34;menlo&amp;#34; , monospace ; background-color: rgb(255 , 255 , 255)&quot;&gt;num != 11 &lt;br&gt;and&lt;br&gt;&amp;nbsp;num % 10 == 1&lt;/span&gt;" style="rhombus;whiteSpace=wrap;html=1;" vertex="1" parent="WIyWlLk6GJQsqaUBKTNV-1">
          <mxGeometry x="250" y="1930" width="140" height="110" as="geometry" />
        </mxCell>
        <mxCell id="whg161GarNfC_AISxSCE-65" value="" style="endArrow=classic;html=1;exitX=0;exitY=0.5;exitDx=0;exitDy=0;entryX=0.5;entryY=0;entryDx=0;entryDy=0;" edge="1" parent="WIyWlLk6GJQsqaUBKTNV-1" source="whg161GarNfC_AISxSCE-55" target="whg161GarNfC_AISxSCE-63">
          <mxGeometry width="50" height="50" relative="1" as="geometry">
            <mxPoint x="420" y="2000" as="sourcePoint" />
            <mxPoint x="470" y="1950" as="targetPoint" />
            <Array as="points">
              <mxPoint x="320" y="1825" />
            </Array>
          </mxGeometry>
        </mxCell>
        <mxCell id="whg161GarNfC_AISxSCE-66" value="No" style="text;html=1;strokeColor=none;fillColor=none;align=center;verticalAlign=middle;whiteSpace=wrap;rounded=0;" vertex="1" parent="WIyWlLk6GJQsqaUBKTNV-1">
          <mxGeometry x="330" y="1810" width="40" height="20" as="geometry" />
        </mxCell>
        <mxCell id="whg161GarNfC_AISxSCE-67" value="Output:num;" style="shape=parallelogram;perimeter=parallelogramPerimeter;whiteSpace=wrap;html=1;fixedSize=1;" vertex="1" parent="WIyWlLk6GJQsqaUBKTNV-1">
          <mxGeometry x="490" y="2040" width="120" height="60" as="geometry" />
        </mxCell>
        <mxCell id="whg161GarNfC_AISxSCE-68" value="Output:&lt;br&gt;&lt;span style=&quot;color: rgb(36 , 41 , 46) ; font-family: , &amp;#34;consolas&amp;#34; , &amp;#34;liberation mono&amp;#34; , &amp;#34;menlo&amp;#34; , monospace ; background-color: rgb(255 , 255 , 255)&quot;&gt;&quot;копейка&quot;&lt;/span&gt;;" style="shape=parallelogram;perimeter=parallelogramPerimeter;whiteSpace=wrap;html=1;fixedSize=1;" vertex="1" parent="WIyWlLk6GJQsqaUBKTNV-1">
          <mxGeometry x="490" y="2125" width="120" height="60" as="geometry" />
        </mxCell>
        <mxCell id="whg161GarNfC_AISxSCE-69" value="" style="endArrow=classic;html=1;exitX=1;exitY=0.5;exitDx=0;exitDy=0;entryX=0.5;entryY=0;entryDx=0;entryDy=0;" edge="1" parent="WIyWlLk6GJQsqaUBKTNV-1" source="whg161GarNfC_AISxSCE-63" target="whg161GarNfC_AISxSCE-67">
          <mxGeometry width="50" height="50" relative="1" as="geometry">
            <mxPoint x="420" y="2100" as="sourcePoint" />
            <mxPoint x="470" y="2050" as="targetPoint" />
            <Array as="points">
              <mxPoint x="550" y="1985" />
            </Array>
          </mxGeometry>
        </mxCell>
        <mxCell id="whg161GarNfC_AISxSCE-70" value="Yes" style="text;html=1;strokeColor=none;fillColor=none;align=center;verticalAlign=middle;whiteSpace=wrap;rounded=0;" vertex="1" parent="WIyWlLk6GJQsqaUBKTNV-1">
          <mxGeometry x="390" y="1970" width="40" height="20" as="geometry" />
        </mxCell>
        <mxCell id="whg161GarNfC_AISxSCE-71" value="" style="endArrow=classic;html=1;exitX=0.5;exitY=1;exitDx=0;exitDy=0;entryX=0.5;entryY=0;entryDx=0;entryDy=0;" edge="1" parent="WIyWlLk6GJQsqaUBKTNV-1" source="whg161GarNfC_AISxSCE-67" target="whg161GarNfC_AISxSCE-68">
          <mxGeometry width="50" height="50" relative="1" as="geometry">
            <mxPoint x="420" y="2100" as="sourcePoint" />
            <mxPoint x="470" y="2050" as="targetPoint" />
          </mxGeometry>
        </mxCell>
        <mxCell id="whg161GarNfC_AISxSCE-72" value="&lt;span style=&quot;color: rgb(36 , 41 , 46) ; font-family: , &amp;#34;consolas&amp;#34; , &amp;#34;liberation mono&amp;#34; , &amp;#34;menlo&amp;#34; , monospace ; background-color: rgb(255 , 255 , 255)&quot;&gt;num != 12&amp;nbsp;&lt;br&gt;and&lt;br&gt;&amp;nbsp;num != 13&amp;nbsp;&lt;br&gt;and&lt;br&gt;&amp;nbsp;num != 14&lt;/span&gt;" style="rhombus;whiteSpace=wrap;html=1;" vertex="1" parent="WIyWlLk6GJQsqaUBKTNV-1">
          <mxGeometry x="160" y="2100" width="180" height="110" as="geometry" />
        </mxCell>
        <mxCell id="whg161GarNfC_AISxSCE-73" value="" style="endArrow=classic;html=1;exitX=0;exitY=0.5;exitDx=0;exitDy=0;entryX=0.5;entryY=0;entryDx=0;entryDy=0;" edge="1" parent="WIyWlLk6GJQsqaUBKTNV-1" source="whg161GarNfC_AISxSCE-63" target="whg161GarNfC_AISxSCE-72">
          <mxGeometry width="50" height="50" relative="1" as="geometry">
            <mxPoint x="420" y="2100" as="sourcePoint" />
            <mxPoint x="470" y="2050" as="targetPoint" />
          </mxGeometry>
        </mxCell>
        <mxCell id="whg161GarNfC_AISxSCE-74" value="No" style="text;html=1;strokeColor=none;fillColor=none;align=center;verticalAlign=middle;whiteSpace=wrap;rounded=0;" vertex="1" parent="WIyWlLk6GJQsqaUBKTNV-1">
          <mxGeometry x="220" y="1990" width="40" height="20" as="geometry" />
        </mxCell>
        <mxCell id="whg161GarNfC_AISxSCE-75" value="Output:num;" style="shape=parallelogram;perimeter=parallelogramPerimeter;whiteSpace=wrap;html=1;fixedSize=1;" vertex="1" parent="WIyWlLk6GJQsqaUBKTNV-1">
          <mxGeometry x="60" y="2278" width="120" height="60" as="geometry" />
        </mxCell>
        <mxCell id="whg161GarNfC_AISxSCE-76" value="Output:&lt;span style=&quot;color: rgb(36 , 41 , 46) ; font-family: , &amp;#34;consolas&amp;#34; , &amp;#34;liberation mono&amp;#34; , &amp;#34;menlo&amp;#34; , monospace ; background-color: rgb(255 , 255 , 255)&quot;&gt;&quot; копеек&quot;;&lt;/span&gt;" style="shape=parallelogram;perimeter=parallelogramPerimeter;whiteSpace=wrap;html=1;fixedSize=1;" vertex="1" parent="WIyWlLk6GJQsqaUBKTNV-1">
          <mxGeometry x="60" y="2390" width="120" height="60" as="geometry" />
        </mxCell>
        <mxCell id="whg161GarNfC_AISxSCE-77" value="" style="endArrow=classic;html=1;exitX=0;exitY=0.5;exitDx=0;exitDy=0;entryX=0.5;entryY=0;entryDx=0;entryDy=0;" edge="1" parent="WIyWlLk6GJQsqaUBKTNV-1" source="whg161GarNfC_AISxSCE-72" target="whg161GarNfC_AISxSCE-75">
          <mxGeometry width="50" height="50" relative="1" as="geometry">
            <mxPoint x="420" y="2180" as="sourcePoint" />
            <mxPoint x="470" y="2130" as="targetPoint" />
            <Array as="points">
              <mxPoint x="120" y="2155" />
            </Array>
          </mxGeometry>
        </mxCell>
        <mxCell id="whg161GarNfC_AISxSCE-78" value="" style="endArrow=classic;html=1;entryX=0.5;entryY=0;entryDx=0;entryDy=0;" edge="1" parent="WIyWlLk6GJQsqaUBKTNV-1" target="whg161GarNfC_AISxSCE-76">
          <mxGeometry width="50" height="50" relative="1" as="geometry">
            <mxPoint x="120" y="2338" as="sourcePoint" />
            <mxPoint x="170" y="2288" as="targetPoint" />
          </mxGeometry>
        </mxCell>
        <mxCell id="whg161GarNfC_AISxSCE-79" value="&lt;span style=&quot;color: rgb(36 , 41 , 46) ; font-family: , &amp;#34;consolas&amp;#34; , &amp;#34;liberation mono&amp;#34; , &amp;#34;menlo&amp;#34; , monospace ; background-color: rgb(255 , 255 , 255)&quot;&gt;num % 10 == 2&amp;nbsp;&lt;br&gt;or&lt;br&gt;&amp;nbsp;num % 10 == 3 &lt;br&gt;or&lt;br&gt;&amp;nbsp;num % 10 == 4&lt;/span&gt;" style="rhombus;whiteSpace=wrap;html=1;" vertex="1" parent="WIyWlLk6GJQsqaUBKTNV-1">
          <mxGeometry x="270" y="2210" width="180" height="140" as="geometry" />
        </mxCell>
        <mxCell id="whg161GarNfC_AISxSCE-81" value="Yes" style="text;html=1;strokeColor=none;fillColor=none;align=center;verticalAlign=middle;whiteSpace=wrap;rounded=0;" vertex="1" parent="WIyWlLk6GJQsqaUBKTNV-1">
          <mxGeometry x="330" y="2140" width="40" height="20" as="geometry" />
        </mxCell>
        <mxCell id="whg161GarNfC_AISxSCE-82" value="" style="endArrow=classic;html=1;exitX=1;exitY=0.5;exitDx=0;exitDy=0;entryX=0.5;entryY=0;entryDx=0;entryDy=0;" edge="1" parent="WIyWlLk6GJQsqaUBKTNV-1" source="whg161GarNfC_AISxSCE-72" target="whg161GarNfC_AISxSCE-79">
          <mxGeometry width="50" height="50" relative="1" as="geometry">
            <mxPoint x="340" y="2155" as="sourcePoint" />
            <mxPoint x="360" y="2210" as="targetPoint" />
            <Array as="points">
              <mxPoint x="360" y="2155" />
            </Array>
          </mxGeometry>
        </mxCell>
        <mxCell id="whg161GarNfC_AISxSCE-84" value="No" style="text;html=1;strokeColor=none;fillColor=none;align=center;verticalAlign=middle;whiteSpace=wrap;rounded=0;" vertex="1" parent="WIyWlLk6GJQsqaUBKTNV-1">
          <mxGeometry x="120" y="2140" width="40" height="20" as="geometry" />
        </mxCell>
        <mxCell id="whg161GarNfC_AISxSCE-86" value="" style="endArrow=classic;html=1;exitX=0;exitY=0.5;exitDx=0;exitDy=0;entryX=0.5;entryY=0;entryDx=0;entryDy=0;" edge="1" parent="WIyWlLk6GJQsqaUBKTNV-1" source="whg161GarNfC_AISxSCE-79" target="whg161GarNfC_AISxSCE-87">
          <mxGeometry width="50" height="50" relative="1" as="geometry">
            <mxPoint x="420" y="2360" as="sourcePoint" />
            <mxPoint x="260" y="2330" as="targetPoint" />
          </mxGeometry>
        </mxCell>
        <mxCell id="whg161GarNfC_AISxSCE-87" value="Output:num;" style="shape=parallelogram;perimeter=parallelogramPerimeter;whiteSpace=wrap;html=1;fixedSize=1;" vertex="1" parent="WIyWlLk6GJQsqaUBKTNV-1">
          <mxGeometry x="210" y="2338" width="120" height="60" as="geometry" />
        </mxCell>
        <mxCell id="whg161GarNfC_AISxSCE-88" value="Output:&lt;span style=&quot;color: rgb(36 , 41 , 46) ; font-family: , &amp;#34;consolas&amp;#34; , &amp;#34;liberation mono&amp;#34; , &amp;#34;menlo&amp;#34; , monospace ; background-color: rgb(255 , 255 , 255)&quot;&gt;&quot; копеек&quot;;&lt;/span&gt;" style="shape=parallelogram;perimeter=parallelogramPerimeter;whiteSpace=wrap;html=1;fixedSize=1;" vertex="1" parent="WIyWlLk6GJQsqaUBKTNV-1">
          <mxGeometry x="200" y="2440" width="120" height="60" as="geometry" />
        </mxCell>
        <mxCell id="whg161GarNfC_AISxSCE-89" value="" style="endArrow=classic;html=1;exitX=0.5;exitY=1;exitDx=0;exitDy=0;entryX=0.589;entryY=0.011;entryDx=0;entryDy=0;entryPerimeter=0;" edge="1" parent="WIyWlLk6GJQsqaUBKTNV-1" source="whg161GarNfC_AISxSCE-87" target="whg161GarNfC_AISxSCE-88">
          <mxGeometry width="50" height="50" relative="1" as="geometry">
            <mxPoint x="420" y="2360" as="sourcePoint" />
            <mxPoint x="470" y="2310" as="targetPoint" />
          </mxGeometry>
        </mxCell>
        <mxCell id="whg161GarNfC_AISxSCE-90" value="Output:num;" style="shape=parallelogram;perimeter=parallelogramPerimeter;whiteSpace=wrap;html=1;fixedSize=1;" vertex="1" parent="WIyWlLk6GJQsqaUBKTNV-1">
          <mxGeometry x="420" y="2360" width="120" height="60" as="geometry" />
        </mxCell>
        <mxCell id="whg161GarNfC_AISxSCE-91" value="Output:&lt;span style=&quot;color: rgb(36 , 41 , 46) ; font-family: , &amp;#34;consolas&amp;#34; , &amp;#34;liberation mono&amp;#34; , &amp;#34;menlo&amp;#34; , monospace ; background-color: rgb(255 , 255 , 255)&quot;&gt;&quot; копейки&quot;;&lt;/span&gt;" style="shape=parallelogram;perimeter=parallelogramPerimeter;whiteSpace=wrap;html=1;fixedSize=1;" vertex="1" parent="WIyWlLk6GJQsqaUBKTNV-1">
          <mxGeometry x="415" y="2450" width="130" height="60" as="geometry" />
        </mxCell>
        <mxCell id="whg161GarNfC_AISxSCE-93" value="" style="endArrow=classic;html=1;exitX=0.5;exitY=1;exitDx=0;exitDy=0;entryX=0.5;entryY=0;entryDx=0;entryDy=0;" edge="1" parent="WIyWlLk6GJQsqaUBKTNV-1" source="whg161GarNfC_AISxSCE-90" target="whg161GarNfC_AISxSCE-91">
          <mxGeometry width="50" height="50" relative="1" as="geometry">
            <mxPoint x="420" y="2360" as="sourcePoint" />
            <mxPoint x="470" y="2310" as="targetPoint" />
          </mxGeometry>
        </mxCell>
        <mxCell id="whg161GarNfC_AISxSCE-94" value="No" style="text;html=1;strokeColor=none;fillColor=none;align=center;verticalAlign=middle;whiteSpace=wrap;rounded=0;" vertex="1" parent="WIyWlLk6GJQsqaUBKTNV-1">
          <mxGeometry x="240" y="2290" width="40" height="20" as="geometry" />
        </mxCell>
        <mxCell id="whg161GarNfC_AISxSCE-95" value="Yes" style="text;html=1;strokeColor=none;fillColor=none;align=center;verticalAlign=middle;whiteSpace=wrap;rounded=0;" vertex="1" parent="WIyWlLk6GJQsqaUBKTNV-1">
          <mxGeometry x="440" y="2258" width="40" height="20" as="geometry" />
        </mxCell>
        <mxCell id="whg161GarNfC_AISxSCE-96" value="" style="endArrow=classic;html=1;exitX=1;exitY=0.5;exitDx=0;exitDy=0;entryX=0.5;entryY=0;entryDx=0;entryDy=0;" edge="1" parent="WIyWlLk6GJQsqaUBKTNV-1" source="whg161GarNfC_AISxSCE-79" target="whg161GarNfC_AISxSCE-90">
          <mxGeometry width="50" height="50" relative="1" as="geometry">
            <mxPoint x="450" y="2280" as="sourcePoint" />
            <mxPoint x="480" y="2360" as="targetPoint" />
            <Array as="points">
              <mxPoint x="480" y="2280" />
            </Array>
          </mxGeometry>
        </mxCell>
        <mxCell id="whg161GarNfC_AISxSCE-97" value="" style="endArrow=classic;html=1;exitX=0.5;exitY=1;exitDx=0;exitDy=0;" edge="1" parent="WIyWlLk6GJQsqaUBKTNV-1" source="whg161GarNfC_AISxSCE-76">
          <mxGeometry width="50" height="50" relative="1" as="geometry">
            <mxPoint x="420" y="2560" as="sourcePoint" />
            <mxPoint x="260" y="2590" as="targetPoint" />
            <Array as="points">
              <mxPoint x="120" y="2590" />
            </Array>
          </mxGeometry>
        </mxCell>
        <mxCell id="whg161GarNfC_AISxSCE-98" value="" style="endArrow=classic;html=1;exitX=0.5;exitY=1;exitDx=0;exitDy=0;" edge="1" parent="WIyWlLk6GJQsqaUBKTNV-1" source="whg161GarNfC_AISxSCE-88">
          <mxGeometry width="50" height="50" relative="1" as="geometry">
            <mxPoint x="420" y="2560" as="sourcePoint" />
            <mxPoint x="260" y="2590" as="targetPoint" />
          </mxGeometry>
        </mxCell>
        <mxCell id="whg161GarNfC_AISxSCE-99" value="" style="endArrow=classic;html=1;exitX=0.5;exitY=1;exitDx=0;exitDy=0;" edge="1" parent="WIyWlLk6GJQsqaUBKTNV-1" source="whg161GarNfC_AISxSCE-91">
          <mxGeometry width="50" height="50" relative="1" as="geometry">
            <mxPoint x="420" y="2560" as="sourcePoint" />
            <mxPoint x="260" y="2590" as="targetPoint" />
            <Array as="points">
              <mxPoint x="480" y="2590" />
            </Array>
          </mxGeometry>
        </mxCell>
        <mxCell id="whg161GarNfC_AISxSCE-100" value="" style="endArrow=classic;html=1;exitX=0.5;exitY=1;exitDx=0;exitDy=0;" edge="1" parent="WIyWlLk6GJQsqaUBKTNV-1" source="whg161GarNfC_AISxSCE-68">
          <mxGeometry width="50" height="50" relative="1" as="geometry">
            <mxPoint x="540" y="2191" as="sourcePoint" />
            <mxPoint x="260" y="2590" as="targetPoint" />
            <Array as="points">
              <mxPoint x="560" y="2590" />
            </Array>
          </mxGeometry>
        </mxCell>
        <mxCell id="whg161GarNfC_AISxSCE-101" value="End" style="ellipse;whiteSpace=wrap;html=1;" vertex="1" parent="WIyWlLk6GJQsqaUBKTNV-1">
          <mxGeometry x="200" y="2670" width="120" height="80" as="geometry" />
        </mxCell>
        <mxCell id="whg161GarNfC_AISxSCE-102" value="" style="endArrow=classic;html=1;entryX=0.5;entryY=0;entryDx=0;entryDy=0;" edge="1" parent="WIyWlLk6GJQsqaUBKTNV-1" target="whg161GarNfC_AISxSCE-101">
          <mxGeometry width="50" height="50" relative="1" as="geometry">
            <mxPoint x="260" y="2590" as="sourcePoint" />
            <mxPoint x="470" y="2700" as="targetPoint" />
          </mxGeometry>
        </mxCell>
      </root>
    </mxGraphModel>
  </diagram>
</mxfile>
